<svg width="34" height="36" viewBox="0 0 34 36" fill="none" xmlns="http://www.w3.org/2000/svg">
<path d="M17 0.333313C26.205 0.333313 33.6667 7.79498 33.6667 17V23.2733C33.6666 23.8925 33.4942 24.4994 33.1686 25.026C32.843 25.5527 32.3772 25.9782 31.8233 26.255L27 28.6666V30.3333C27.0001 31.6087 26.5128 32.8358 25.6379 33.7637C24.7629 34.6917 23.5665 35.2502 22.2933 35.325L21.9167 35.3333C21.9533 35.1518 21.9778 34.9681 21.99 34.7833L22 34.5V33.6666C22.0003 32.8257 21.6827 32.0157 21.1108 31.3991C20.539 30.7824 19.7553 30.4047 18.9167 30.3416L18.6667 30.3333H15.3333C14.4924 30.333 13.6824 30.6507 13.0657 31.2225C12.4491 31.7943 12.0714 32.5781 12.0083 33.4166L12 33.6666V34.5C12 34.785 12.0283 35.065 12.0833 35.3333H12C10.6739 35.3333 9.40214 34.8065 8.46446 33.8688C7.52678 32.9312 7 31.6594 7 30.3333V28.6666L2.17666 26.255C1.62255 25.9781 1.15656 25.5523 0.83096 25.0253C0.505361 24.4984 0.33304 23.8911 0.333329 23.2716V17C0.333329 7.79498 7.795 0.333313 17 0.333313ZM17 3.66665C13.536 3.66669 10.2079 5.01487 7.72049 7.42576C5.23307 9.83665 3.78158 13.121 3.67333 16.5833L3.66666 17V23.2733L10.3333 26.6066V29.2583L10.4583 29.1183C11.6388 27.8511 13.2669 27.0942 14.9967 27.0083L15.3333 27L18.7883 27.0016L19.16 27.0183C20.825 27.1416 22.31 27.8683 23.41 28.98L23.6667 29.2583V26.6066L30.3333 23.2733V17C30.3333 13.4638 28.9286 10.0724 26.4281 7.57189C23.9276 5.0714 20.5362 3.66665 17 3.66665V3.66665ZM10.3333 15.3333C11.2174 15.3333 12.0652 15.6845 12.6904 16.3096C13.3155 16.9347 13.6667 17.7826 13.6667 18.6666C13.6667 19.5507 13.3155 20.3985 12.6904 21.0237C12.0652 21.6488 11.2174 22 10.3333 22C9.44927 22 8.60143 21.6488 7.97631 21.0237C7.35118 20.3985 7 19.5507 7 18.6666C7 17.7826 7.35118 16.9347 7.97631 16.3096C8.60143 15.6845 9.44927 15.3333 10.3333 15.3333V15.3333ZM23.6667 15.3333C24.5507 15.3333 25.3986 15.6845 26.0237 16.3096C26.6488 16.9347 27 17.7826 27 18.6666C27 19.5507 26.6488 20.3985 26.0237 21.0237C25.3986 21.6488 24.5507 22 23.6667 22C22.7826 22 21.9348 21.6488 21.3096 21.0237C20.6845 20.3985 20.3333 19.5507 20.3333 18.6666C20.3333 17.7826 20.6845 16.9347 21.3096 16.3096C21.9348 15.6845 22.7826 15.3333 23.6667 15.3333V15.3333Z" fill="black"/>
</svg>
