<svg width="34" height="34" viewBox="0 0 34 34" fill="none" xmlns="http://www.w3.org/2000/svg">
<path d="M30.3333 17C30.3333 13.4638 28.9286 10.0724 26.4281 7.57189C23.9276 5.0714 20.5362 3.66665 17 3.66665C13.4638 3.66665 10.0724 5.0714 7.57189 7.57189C5.0714 10.0724 3.66665 13.4638 3.66665 17V23.6666H8.66665C9.10867 23.6666 9.5326 23.8422 9.84516 24.1548C10.1577 24.4674 10.3333 24.8913 10.3333 25.3333V30.3333H23.6666V25.3333C23.6666 24.8913 23.8422 24.4674 24.1548 24.1548C24.4674 23.8422 24.8913 23.6666 25.3333 23.6666H30.3333V17ZM27 27V32C27 32.442 26.8244 32.8659 26.5118 33.1785C26.1993 33.4911 25.7753 33.6666 25.3333 33.6666H8.66665C8.22462 33.6666 7.8007 33.4911 7.48814 33.1785C7.17558 32.8659 6.99998 32.442 6.99998 32V27H1.99998C1.55795 27 1.13403 26.8244 0.821468 26.5118C0.508908 26.1993 0.333313 25.7753 0.333313 25.3333V17C0.333313 7.79498 7.79498 0.333313 17 0.333313C26.205 0.333313 33.6666 7.79498 33.6666 17V25.3333C33.6666 25.7753 33.4911 26.1993 33.1785 26.5118C32.8659 26.8244 32.442 27 32 27H27ZM9.49998 20.3333C9.17168 20.3333 8.84659 20.2687 8.54327 20.143C8.23996 20.0174 7.96436 19.8332 7.73221 19.6011C7.50007 19.3689 7.31592 19.0933 7.19028 18.79C7.06464 18.4867 6.99998 18.1616 6.99998 17.8333C6.99998 17.505 7.06464 17.1799 7.19028 16.8766C7.31592 16.5733 7.50007 16.2977 7.73221 16.0655C7.96436 15.8334 8.23996 15.6493 8.54327 15.5236C8.84659 15.398 9.17168 15.3333 9.49998 15.3333C10.163 15.3333 10.7989 15.5967 11.2677 16.0655C11.7366 16.5344 12 17.1703 12 17.8333C12 18.4964 11.7366 19.1322 11.2677 19.6011C10.7989 20.0699 10.163 20.3333 9.49998 20.3333ZM24.5 20.3333C24.1717 20.3333 23.8466 20.2687 23.5433 20.143C23.24 20.0174 22.9644 19.8332 22.7322 19.6011C22.5001 19.3689 22.3159 19.0933 22.1903 18.79C22.0646 18.4867 22 18.1616 22 17.8333C22 17.505 22.0646 17.1799 22.1903 16.8766C22.3159 16.5733 22.5001 16.2977 22.7322 16.0655C22.9644 15.8334 23.24 15.6493 23.5433 15.5236C23.8466 15.398 24.1717 15.3333 24.5 15.3333C25.163 15.3333 25.7989 15.5967 26.2677 16.0655C26.7366 16.5344 27 17.1703 27 17.8333C27 18.4964 26.7366 19.1322 26.2677 19.6011C25.7989 20.0699 25.163 20.3333 24.5 20.3333Z" fill="white"/>
</svg>
