<svg width="30" height="35" viewBox="0 0 30 35" fill="none" xmlns="http://www.w3.org/2000/svg">
<path d="M15 0.333313C18.7572 0.333313 22.3606 1.82587 25.0173 4.48263C27.6741 7.1394 29.1667 10.7427 29.1667 14.5C29.1667 25.3333 20 34.5 15 34.5C10 34.5 0.833328 25.3333 0.833328 14.5C0.833328 10.7427 2.32588 7.1394 4.98265 4.48263C7.63942 1.82587 11.2428 0.333313 15 0.333313ZM15 3.66665C12.1268 3.66665 9.37132 4.80801 7.33967 6.83966C5.30803 8.8713 4.16666 11.6268 4.16666 14.5C4.16666 22.49 11.1083 31.1666 15 31.1666C18.8917 31.1666 25.8333 22.49 25.8333 14.5C25.8333 11.6268 24.692 8.8713 22.6603 6.83966C20.6287 4.80801 17.8732 3.66665 15 3.66665ZM24.1667 15.3333C24.4333 15.3333 24.6983 15.3466 24.9583 15.375C25.0764 16.4873 24.9442 17.612 24.5714 18.6667C24.1986 19.7213 23.5945 20.6792 22.8036 21.4702C22.0126 22.2612 21.0547 22.8652 20 23.2381C18.9454 23.6109 17.8207 23.7431 16.7083 23.625C16.5973 22.5791 16.7075 21.5216 17.0317 20.5212C17.356 19.5207 17.887 18.5996 18.5903 17.8176C19.2937 17.0357 20.1536 16.4104 21.1143 15.9824C22.075 15.5544 23.115 15.3333 24.1667 15.3333ZM5.83333 15.3333C6.88504 15.3333 7.92501 15.5544 8.8857 15.9824C9.84638 16.4104 10.7063 17.0357 11.4097 17.8176C12.113 18.5996 12.644 19.5207 12.9683 20.5212C13.2925 21.5216 13.4027 22.5791 13.2917 23.625C12.1793 23.7431 11.0546 23.6109 9.99996 23.2381C8.94531 22.8652 7.98741 22.2612 7.19643 21.4702C6.40546 20.6792 5.80143 19.7213 5.42859 18.6667C5.05575 17.612 4.92355 16.4873 5.04166 15.375C5.3 15.3466 5.56666 15.3333 5.83333 15.3333Z" fill="white"/>
</svg>
