<svg width="359" height="132" viewBox="0 0 359 132" fill="none" xmlns="http://www.w3.org/2000/svg">
<rect width="359" height="132" fill="white"/>
<path d="M137.409 52.3458C135.715 52.3458 134.345 53.7567 134.345 55.5012V80.5107C134.345 82.9234 133.083 84.9842 130.974 86.0237C128.865 87.0632 126.504 86.8035 124.684 85.2809L100.639 65.4762L123.639 45.7258C124.45 45.1506 124.991 44.2039 124.991 43.1086C124.991 41.364 123.62 39.9531 121.926 39.9531C121.295 39.9531 120.701 40.1569 120.214 40.4914C120.142 40.5283 120.088 40.5842 120.015 40.6401L95.7367 61.4292L70.6106 40.7518C66.9519 37.7261 62.0669 37.1509 57.8496 39.248C53.614 41.327 51 45.633 51 50.459V80.51C51 85.3361 53.6133 89.6239 57.8496 91.721C62.0676 93.8 66.9695 93.2248 70.6106 90.2173L95.7367 69.521L120.844 90.2173C123.044 92.0365 125.693 92.9643 128.379 92.9643C130.145 92.9643 131.947 92.5559 133.624 91.721C137.86 89.6239 140.473 85.3361 140.473 80.51V55.5012C140.473 53.7567 139.103 52.3458 137.409 52.3458ZM66.7892 85.2809C64.9507 86.8028 62.6072 87.0632 60.4989 86.0237C58.3899 84.9842 57.1283 82.9241 57.1283 80.5107V50.4597C57.1283 48.0471 58.3899 45.9681 60.4989 44.9286C61.3463 44.5202 62.2289 44.3164 63.0946 44.3164C64.4104 44.3164 65.6903 44.7618 66.7899 45.6714L90.834 65.4762L66.7892 85.2809ZM140.474 41.1558C140.474 42.8982 139.102 44.3113 137.41 44.3113C135.718 44.3113 134.346 42.8982 134.346 41.1558C134.346 39.4134 135.718 38.0003 137.41 38.0003C139.103 38.0003 140.474 39.4127 140.474 41.1558Z" fill="url(#paint0_linear_482_1411)"/>
<path d="M155 62.9413V41.3637C155 40.2436 155.248 39.4022 155.743 38.8422C156.238 38.2822 156.879 38 157.666 38C158.476 38 159.132 38.2778 159.634 38.8313C160.137 39.387 160.387 40.2313 160.387 41.3629V62.9406C160.387 64.0729 160.137 64.9209 159.634 65.4809C159.132 66.0409 158.476 66.3209 157.666 66.3209C156.891 66.3209 156.255 66.0387 155.752 65.4707C155.249 64.9049 155 64.0613 155 62.9413Z" fill="#1C1C23"/>
<path d="M173.726 41.3259L184.083 57.4667V41.1765C184.083 40.1189 184.305 39.3246 184.746 38.7943C185.187 38.2655 185.782 38 186.532 38C187.307 38 187.917 38.2655 188.364 38.7943C188.811 39.3253 189.037 40.1196 189.037 41.1765V62.715C189.037 65.1204 188.068 66.3209 186.133 66.3209C185.65 66.3209 185.215 66.2505 184.829 66.1076C184.44 65.9647 184.078 65.7362 183.74 65.4258C183.402 65.1146 183.087 64.7497 182.795 64.3333C182.505 63.9162 182.215 63.4897 181.925 63.0537L171.821 47.0994V63.1466C171.821 64.1919 171.586 64.984 171.115 65.5186C170.641 66.054 170.038 66.3209 169.3 66.3209C168.537 66.3209 167.927 66.0511 167.468 65.5077C167.009 64.9666 166.778 64.1788 166.778 63.1459V42.0165C166.778 41.1207 166.874 40.4177 167.069 39.9056C167.299 39.3456 167.679 38.8872 168.211 38.5332C168.743 38.1792 169.318 38 169.935 38C170.418 38 170.833 38.0827 171.177 38.2445C171.522 38.4062 171.824 38.6238 172.085 38.8973C172.345 39.1708 172.611 39.5255 172.883 39.9607C173.154 40.3989 173.436 40.853 173.726 41.3259Z" fill="#1C1C23"/>
<path d="M211.12 42.7471H200.509V49.7516H209.381C210.202 49.7516 210.816 49.9423 211.221 50.3217C211.626 50.7011 211.829 51.2089 211.829 51.8436C211.829 52.4805 211.623 52.9839 211.211 53.3575C210.8 53.7311 210.19 53.9175 209.381 53.9175H200.509V62.9414C200.509 64.0861 200.257 64.9363 199.756 65.4897C199.254 66.0432 198.61 66.3211 197.825 66.3211C197.025 66.3211 196.375 66.0411 195.874 65.481C195.372 64.921 195.121 64.0731 195.121 62.9407V41.868C195.121 41.0715 195.236 40.4208 195.467 39.9166C195.697 39.4125 196.055 39.0454 196.546 38.8133C197.036 38.5834 197.662 38.4688 198.423 38.4688H211.121C211.981 38.4688 212.619 38.6639 213.035 39.0556C213.452 39.4495 213.661 39.9616 213.661 40.5985C213.661 41.2456 213.452 41.7657 213.035 42.1581C212.618 42.5498 211.979 42.7471 211.12 42.7471Z" fill="#1C1C23"/>
<path d="M225.384 62.9413V54.2532L218.89 43.8851C218.322 42.9523 217.919 42.224 217.684 41.6995C217.449 41.1772 217.33 40.7231 217.33 40.3372C217.33 39.7003 217.569 39.1534 218.047 38.6928C218.525 38.2321 219.114 38 219.817 38C220.554 38 221.114 38.2154 221.494 38.6449C221.875 39.0765 222.447 39.9325 223.208 41.2142L228.18 49.5273L233.204 41.2142C233.506 40.7043 233.762 40.2748 233.967 39.9245C234.172 39.5763 234.398 39.2506 234.647 38.9437C234.895 38.6391 235.168 38.4069 235.47 38.2452C235.775 38.0834 236.143 38.0007 236.578 38.0007C237.254 38.0007 237.82 38.2285 238.273 38.6826C238.728 39.1389 238.954 39.6633 238.954 40.2625C238.954 40.7478 238.839 41.2331 238.609 41.7184C238.38 42.2058 237.987 42.8776 237.429 43.7357L230.773 54.2525V62.9406C230.773 64.0729 230.519 64.9209 230.011 65.4809C229.502 66.0409 228.855 66.3209 228.07 66.3209C227.27 66.3209 226.625 66.0431 226.129 65.4896C225.631 64.9361 225.384 64.086 225.384 62.9413Z" fill="#1C1C23"/>
<path d="M249.99 41.3259L260.347 57.4667V41.1765C260.347 40.1189 260.568 39.3246 261.009 38.7943C261.45 38.2655 262.046 38 262.796 38C263.571 38 264.181 38.2655 264.628 38.7943C265.075 39.3253 265.3 40.1196 265.3 41.1765V62.715C265.3 65.1204 264.332 66.3209 262.397 66.3209C261.914 66.3209 261.479 66.2505 261.092 66.1076C260.704 65.9647 260.341 65.7362 260.003 65.4258C259.665 65.1146 259.351 64.7497 259.059 64.3333C258.769 63.9162 258.479 63.4897 258.189 63.0537L248.085 47.0986V63.1459C248.085 64.1911 247.85 64.9833 247.378 65.5179C246.905 66.0532 246.301 66.3202 245.564 66.3202C244.801 66.3202 244.19 66.0503 243.732 65.507C243.272 64.9659 243.041 64.1781 243.041 63.1451V42.0165C243.041 41.1207 243.138 40.4177 243.334 39.9056C243.563 39.3456 243.944 38.8872 244.475 38.5332C245.007 38.1784 245.583 38 246.199 38C246.682 38 247.097 38.0827 247.442 38.2445C247.786 38.4062 248.088 38.6238 248.35 38.8973C248.61 39.1708 248.875 39.5255 249.147 39.9607C249.418 40.3989 249.699 40.853 249.99 41.3259Z" fill="#1C1C23"/>
<path d="M278.514 41.3259L288.871 57.4667V41.1765C288.871 40.1189 289.092 39.3246 289.533 38.7943C289.974 38.2655 290.57 38 291.32 38C292.095 38 292.705 38.2655 293.152 38.7943C293.599 39.3253 293.825 40.1196 293.825 41.1765V62.715C293.825 65.1204 292.856 66.3209 290.921 66.3209C290.438 66.3209 290.003 66.2505 289.616 66.1076C289.228 65.9647 288.866 65.7362 288.527 65.4258C288.189 65.1146 287.875 64.7497 287.583 64.3333C287.293 63.9162 287.003 63.4897 286.713 63.0537L276.609 47.0994V63.1466C276.609 64.1919 276.374 64.984 275.902 65.5186C275.429 66.054 274.825 66.3209 274.088 66.3209C273.325 66.3209 272.714 66.0511 272.256 65.5077C271.796 64.9666 271.565 64.1788 271.565 63.1459V42.0165C271.565 41.1207 271.662 40.4177 271.857 39.9056C272.087 39.3456 272.467 38.8872 272.999 38.5332C273.531 38.1784 274.106 38 274.723 38C275.206 38 275.621 38.0827 275.965 38.2445C276.31 38.4062 276.612 38.6238 276.873 38.8973C277.133 39.1708 277.399 39.5255 277.67 39.9607C277.942 40.3989 278.223 40.853 278.514 41.3259Z" fill="#1C1C23"/>
<path d="M311.717 38C314.476 38 316.842 38.5767 318.819 39.7293C320.796 40.8798 322.294 42.5185 323.309 44.6417C324.327 46.765 324.834 49.2596 324.834 52.1235C324.834 54.2409 324.556 56.1646 323.998 57.8962C323.443 59.6277 322.609 61.1285 321.496 62.398C320.384 63.6689 319.017 64.6394 317.396 65.3133C315.775 65.9851 313.918 66.3209 311.826 66.3209C309.746 66.3209 307.884 65.9763 306.24 65.2843C304.596 64.5937 303.222 63.6195 302.122 62.3602C301.021 61.1039 300.19 59.59 299.627 57.8214C299.064 56.0529 298.784 54.1408 298.784 52.0857C298.784 49.9814 299.075 48.0504 299.663 46.2964C300.249 44.5402 301.099 43.0451 302.213 41.8112C303.324 40.5795 304.679 39.6358 306.276 38.9807C307.871 38.3272 309.686 38 311.717 38ZM319.373 52.0857C319.373 50.0807 319.058 48.3449 318.43 46.8752C317.8 45.4048 316.901 44.2935 315.736 43.5406C314.568 42.7854 313.229 42.4104 311.716 42.4104C310.641 42.4104 309.646 42.6179 308.733 43.0342C307.82 43.4528 307.033 44.0607 306.375 44.8572C305.716 45.6537 305.197 46.6714 304.815 47.9118C304.434 49.1501 304.245 50.5428 304.245 52.0857C304.245 53.6432 304.434 55.0512 304.815 56.3075C305.197 57.5661 305.735 58.6092 306.43 59.4369C307.124 60.266 307.924 60.8862 308.824 61.2968C309.726 61.7074 310.715 61.9127 311.79 61.9127C313.17 61.9127 314.436 61.558 315.592 60.8492C316.746 60.1384 317.666 59.043 318.348 57.5603C319.03 56.0769 319.373 54.2525 319.373 52.0857Z" fill="#1C1C23"/>
<path d="M44.4359 61.5123C44.4359 61.5123 48.3133 55.6279 53.57 60.2092C53.57 60.2092 56.0838 63.0894 58.3322 64.1959C59.83 64.8897 61.4598 65.2574 63.1123 65.2743C64.7649 65.2913 66.4019 64.9571 67.9139 64.2942C71.4322 62.7429 72.5407 58.3995 72.6917 57.7686C72.6917 57.7686 69.7199 62.1638 65.4625 60.3178C64.2977 59.7584 63.2694 58.9538 62.449 57.9599C60.9657 56.2329 58.5091 54.48 55.7455 54.1491C53.9752 53.8724 52.1655 53.9818 50.442 54.4696C49.8071 54.7127 46.1326 55.5038 44.4359 61.5123Z" fill="#1F78DE"/>
<path d="M35 72.7643C35 72.7643 38.8826 66.8799 44.1341 71.4613C44.1341 71.4613 46.6479 74.3414 48.9015 75.4479C50.3969 76.1449 52.0251 76.516 53.6768 76.5366C55.3284 76.5571 56.9654 76.2265 58.4779 75.5669C62.0015 73.9743 63.1048 69.6515 63.261 69.0206C63.261 69.0206 60.2839 73.4158 56.0266 71.5698C54.8628 71.0089 53.8348 70.2045 53.0131 69.212C51.535 67.4849 49.0732 65.732 46.3096 65.4011C44.5403 65.128 42.7323 65.241 41.0113 65.732C40.3711 65.9647 36.6967 66.7662 35 72.7643Z" fill="#1F78DE"/>
<path d="M159.254 93.0264C159.037 93.0264 158.879 93 158.779 92.9473C158.68 92.8887 158.63 92.8008 158.63 92.6836V83.2529H155.624C155.513 83.2529 155.434 83.2148 155.387 83.1387C155.34 83.0625 155.316 82.9453 155.316 82.7871V82.5322C155.316 82.3682 155.34 82.251 155.387 82.1807C155.434 82.1045 155.513 82.0664 155.624 82.0664H162.954C163.065 82.0664 163.145 82.1045 163.191 82.1807C163.238 82.251 163.262 82.3682 163.262 82.5322V82.7871C163.262 82.9453 163.238 83.0625 163.191 83.1387C163.145 83.2148 163.065 83.2529 162.954 83.2529H160.01V92.6836C160.01 92.9121 159.799 93.0264 159.377 93.0264H159.254Z" fill="#808080"/>
<path d="M166.777 93.0264C166.542 93.0264 166.372 93.0059 166.267 92.9648C166.161 92.918 166.109 92.8506 166.109 92.7627C166.109 92.7217 166.123 92.6514 166.153 92.5518L169.853 82.2773C169.911 82.1074 170.119 82.0225 170.477 82.0225H170.934C171.291 82.0225 171.499 82.1074 171.558 82.2773L175.258 92.5605C175.287 92.625 175.302 92.6924 175.302 92.7627C175.302 92.9385 175.082 93.0264 174.643 93.0264H174.511C174.148 93.0264 173.937 92.9443 173.878 92.7803L172.964 90.2139H168.376L167.48 92.7803C167.427 92.9443 167.219 93.0264 166.856 93.0264H166.777ZM172.542 89.0273L170.908 84.3779C170.861 84.249 170.823 84.1025 170.793 83.9385C170.764 83.7744 170.738 83.6162 170.714 83.4639H170.679C170.609 83.8564 170.53 84.1611 170.442 84.3779L168.807 89.0273H172.542Z" fill="#808080"/>
<path d="M180.61 93.0264C180.188 93.0264 179.977 92.9121 179.977 92.6836V82.374C179.977 82.1396 180.188 82.0225 180.61 82.0225H180.733C181.149 82.0225 181.357 82.1396 181.357 82.374V92.6836C181.357 92.9121 181.149 93.0264 180.733 93.0264H180.61Z" fill="#808080"/>
<path d="M187.834 93C187.67 93 187.55 92.9619 187.473 92.8857C187.397 92.8096 187.359 92.6924 187.359 92.5342V82.374C187.359 82.1396 187.57 82.0225 187.992 82.0225H188.115C188.531 82.0225 188.739 82.1396 188.739 82.374V91.8135H193.037C193.148 91.8135 193.227 91.8516 193.274 91.9277C193.321 91.998 193.345 92.1152 193.345 92.2793V92.5342C193.345 92.6924 193.321 92.8096 193.274 92.8857C193.227 92.9619 193.148 93 193.037 93H187.834Z" fill="#808080"/>
<path d="M199.329 93.0264C198.943 93.0264 198.732 92.9443 198.696 92.7803L196.025 82.5146C196.019 82.4854 196.01 82.4473 195.998 82.4004C195.986 82.3535 195.981 82.3184 195.981 82.2949C195.981 82.2129 196.036 82.1484 196.148 82.1016C196.259 82.0488 196.429 82.0225 196.657 82.0225H196.807C196.977 82.0225 197.117 82.043 197.229 82.084C197.34 82.125 197.407 82.1895 197.431 82.2773L199.417 89.9678C199.452 90.1201 199.528 90.5098 199.646 91.1367C199.675 91.3184 199.693 91.415 199.698 91.4268C199.827 90.8877 199.953 90.3867 200.076 89.9238L201.966 82.2949C202.007 82.1133 202.209 82.0225 202.572 82.0225H202.818C203.188 82.0225 203.393 82.1133 203.434 82.2949L205.367 89.9854C205.426 90.2139 205.482 90.4863 205.534 90.8027C205.593 91.1191 205.628 91.3271 205.64 91.4268C205.763 90.9229 205.889 90.4277 206.018 89.9414L207.907 82.2773C207.948 82.1074 208.153 82.0225 208.523 82.0225H208.619C209.065 82.0225 209.287 82.1133 209.287 82.2949C209.287 82.3359 209.273 82.4092 209.243 82.5146L206.545 92.7803C206.498 92.9443 206.287 93.0264 205.912 93.0264H205.279C204.899 93.0264 204.691 92.9443 204.655 92.7803L202.942 86.417L202.625 84.3867L202.291 86.417L200.586 92.7803C200.551 92.9443 200.346 93.0264 199.971 93.0264H199.329Z" fill="#808080"/>
<path d="M214.639 93.0264C214.217 93.0264 214.006 92.9121 214.006 92.6836V82.374C214.006 82.1396 214.217 82.0225 214.639 82.0225H214.762C215.178 82.0225 215.386 82.1396 215.386 82.374V92.6836C215.386 92.9121 215.178 93.0264 214.762 93.0264H214.639Z" fill="#808080"/>
<path d="M221.916 93.0264C221.693 93.0264 221.532 93 221.432 92.9473C221.333 92.8887 221.283 92.8008 221.283 92.6836V82.374C221.283 82.1396 221.494 82.0225 221.916 82.0225H222.241C222.405 82.0225 222.534 82.0459 222.628 82.0928C222.727 82.1396 222.815 82.2158 222.891 82.3213L227.883 89.8535L228.349 90.7324V82.374C228.349 82.1396 228.554 82.0225 228.965 82.0225H229.088C229.498 82.0225 229.703 82.1396 229.703 82.374V92.6836C229.703 92.8008 229.653 92.8887 229.553 92.9473C229.454 93 229.299 93.0264 229.088 93.0264H228.771C228.625 93.0264 228.507 93.0088 228.42 92.9736C228.332 92.9385 228.264 92.8828 228.217 92.8066L223.067 85.0371L222.645 84.2285V92.6836C222.645 92.9121 222.437 93.0264 222.021 93.0264H221.916Z" fill="#808080"/>
<path d="M236.065 93C235.901 93 235.781 92.9619 235.705 92.8857C235.629 92.8096 235.591 92.6924 235.591 92.5342V82.5322C235.591 82.3682 235.629 82.251 235.705 82.1807C235.781 82.1045 235.901 82.0664 236.065 82.0664H239.221C240.686 82.0664 241.857 82.5 242.736 83.3672C243.615 84.2344 244.055 85.6201 244.055 87.5244C244.055 89.4404 243.615 90.832 242.736 91.6992C241.857 92.5664 240.686 93 239.221 93H236.065ZM239.115 91.8135C240.17 91.8135 241.019 91.4707 241.664 90.7852C242.309 90.0938 242.631 89.0068 242.631 87.5244C242.631 86.5283 242.478 85.7139 242.174 85.0811C241.869 84.4424 241.453 83.9795 240.926 83.6924C240.398 83.3994 239.795 83.2529 239.115 83.2529H236.971V91.8135H239.115Z" fill="#808080"/>
<path d="M255.63 93C255.466 93 255.346 92.9619 255.27 92.8857C255.194 92.8096 255.156 92.6924 255.156 92.5342V82.5322C255.156 82.3682 255.194 82.251 255.27 82.1807C255.346 82.1045 255.466 82.0664 255.63 82.0664H258.425C259.187 82.0664 259.829 82.1807 260.35 82.4092C260.872 82.6377 261.264 82.96 261.528 83.376C261.792 83.792 261.923 84.2754 261.923 84.8262C261.923 85.166 261.844 85.5059 261.686 85.8457C261.528 86.1797 261.317 86.4697 261.053 86.7158C260.79 86.9561 260.508 87.1172 260.209 87.1992V87.2607C260.209 87.2197 260.412 87.2988 260.816 87.498C261.22 87.6914 261.584 87.9814 261.906 88.3682C262.234 88.749 262.398 89.2441 262.398 89.8535C262.398 91.9512 261.039 93 258.32 93H255.63ZM258.355 86.7773C258.765 86.7773 259.134 86.6982 259.462 86.54C259.791 86.376 260.045 86.1562 260.227 85.8809C260.415 85.5996 260.508 85.2891 260.508 84.9492C260.508 84.3633 260.333 83.9355 259.981 83.666C259.629 83.3906 259.067 83.2529 258.293 83.2529H256.536V86.7773H258.355ZM258.821 91.8135C259.506 91.8135 260.037 91.6348 260.412 91.2773C260.787 90.9141 260.974 90.4189 260.974 89.792C260.974 89.2119 260.769 88.7637 260.359 88.4473C259.949 88.125 259.345 87.9639 258.548 87.9639H256.536V91.8135H258.821Z" fill="#808080"/>
<path d="M267.864 93C267.7 93 267.58 92.9619 267.504 92.8857C267.428 92.8096 267.389 92.6924 267.389 92.5342V82.374C267.389 82.1396 267.6 82.0225 268.022 82.0225H268.145C268.561 82.0225 268.769 82.1396 268.769 82.374V91.8135H273.067C273.179 91.8135 273.258 91.8516 273.304 91.9277C273.351 91.998 273.375 92.1152 273.375 92.2793V92.5342C273.375 92.6924 273.351 92.8096 273.304 92.8857C273.258 92.9619 273.179 93 273.067 93H267.864Z" fill="#808080"/>
<path d="M282.11 93.0879C280.546 93.0879 279.354 92.6133 278.533 91.6641C277.713 90.7148 277.303 89.3262 277.303 87.498C277.303 85.6758 277.71 84.2988 278.524 83.3672C279.345 82.4297 280.54 81.9609 282.11 81.9609C283.687 81.9609 284.885 82.4297 285.705 83.3672C286.525 84.2988 286.936 85.6758 286.936 87.498C286.936 89.3262 286.525 90.7148 285.705 91.6641C284.885 92.6133 283.687 93.0879 282.11 93.0879ZM282.11 91.9014C283.212 91.9014 284.056 91.5264 284.642 90.7764C285.228 90.0205 285.521 88.9277 285.521 87.498C285.521 86.0684 285.228 84.9873 284.642 84.2549C284.062 83.5166 283.218 83.1475 282.11 83.1475C281.009 83.1475 280.168 83.5166 279.588 84.2549C279.008 84.9873 278.718 86.0684 278.718 87.498C278.718 88.9336 279.008 90.0264 279.588 90.7764C280.168 91.5264 281.009 91.9014 282.11 91.9014Z" fill="#808080"/>
<path d="M296.726 93.0879C295.015 93.0879 293.749 92.6367 292.929 91.7344C292.109 90.832 291.699 89.4287 291.699 87.5244C291.699 83.8154 293.383 81.9609 296.752 81.9609C297.244 81.9609 297.722 82.0137 298.185 82.1191C298.648 82.2188 299.023 82.3447 299.31 82.4971C299.597 82.6494 299.741 82.7959 299.741 82.9365C299.741 83.0244 299.708 83.1416 299.644 83.2881C299.585 83.4346 299.515 83.5635 299.433 83.6748C299.351 83.7861 299.278 83.8418 299.213 83.8418C299.184 83.8418 299.102 83.8037 298.967 83.7275C298.662 83.5635 298.343 83.4258 298.009 83.3145C297.675 83.2031 297.268 83.1475 296.787 83.1475C295.528 83.1475 294.599 83.499 294.001 84.2021C293.41 84.8994 293.114 86.0127 293.114 87.542C293.114 89.0361 293.407 90.1377 293.993 90.8467C294.584 91.5498 295.495 91.9014 296.726 91.9014C297.242 91.9014 297.684 91.8398 298.053 91.7168C298.422 91.5938 298.777 91.4414 299.117 91.2598C299.281 91.1719 299.38 91.1279 299.415 91.1279C299.48 91.1279 299.553 91.1836 299.635 91.2949C299.723 91.4062 299.799 91.5322 299.864 91.6729C299.928 91.8076 299.96 91.9043 299.96 91.9629C299.96 92.1094 299.811 92.2734 299.512 92.4551C299.219 92.6309 298.824 92.7803 298.326 92.9033C297.833 93.0264 297.3 93.0879 296.726 93.0879Z" fill="#808080"/>
<path d="M305.602 93.0264C305.18 93.0264 304.969 92.9121 304.969 92.6836V82.374C304.969 82.1396 305.18 82.0225 305.602 82.0225H305.725C306.141 82.0225 306.349 82.1396 306.349 82.374V87.1553H306.411L310.252 82.251C310.322 82.1748 310.433 82.1191 310.586 82.084C310.744 82.043 310.917 82.0225 311.104 82.0225H311.254C311.429 82.0225 311.564 82.043 311.658 82.084C311.752 82.125 311.798 82.1748 311.798 82.2334C311.798 82.3271 311.749 82.4326 311.649 82.5498L307.747 87.4189L312.475 92.5605C312.569 92.6602 312.616 92.7422 312.616 92.8066C312.616 92.8945 312.563 92.9531 312.458 92.9824C312.358 93.0117 312.182 93.0264 311.93 93.0264H311.737C311.514 93.0264 311.336 93.0146 311.201 92.9912C311.072 92.9678 310.966 92.9121 310.884 92.8242L306.411 87.7969H306.349V92.6836C306.349 92.9121 306.141 93.0264 305.725 93.0264H305.602Z" fill="#808080"/>
<path d="M319.242 93.0879C318.668 93.0879 318.132 93.0264 317.634 92.9033C317.142 92.7744 316.746 92.6221 316.447 92.4463C316.154 92.2646 316.008 92.1006 316.008 91.9541C316.008 91.8721 316.04 91.7637 316.104 91.6289C316.175 91.4941 316.254 91.374 316.342 91.2686C316.43 91.1631 316.5 91.1104 316.553 91.1104C316.6 91.1104 316.702 91.1572 316.86 91.251C317.224 91.4385 317.584 91.5938 317.941 91.7168C318.299 91.8398 318.732 91.9014 319.242 91.9014C319.641 91.9014 319.995 91.8252 320.306 91.6729C320.616 91.5205 320.856 91.3066 321.026 91.0312C321.202 90.75 321.29 90.4277 321.29 90.0645C321.29 89.6777 321.184 89.3584 320.974 89.1064C320.768 88.8486 320.517 88.6465 320.218 88.5C319.925 88.3477 319.497 88.1602 318.934 87.9375C318.325 87.7031 317.842 87.4863 317.484 87.2871C317.133 87.082 316.831 86.7861 316.579 86.3994C316.333 86.0127 316.21 85.5 316.21 84.8613C316.21 84.3047 316.353 83.8066 316.641 83.3672C316.928 82.9219 317.335 82.5762 317.862 82.3301C318.39 82.084 318.996 81.9609 319.682 81.9609C319.992 81.9609 320.347 82.0049 320.745 82.0928C321.143 82.1748 321.483 82.2891 321.765 82.4355C322.052 82.582 322.195 82.7432 322.195 82.9189C322.195 82.9951 322.163 83.1006 322.099 83.2354C322.04 83.3643 321.97 83.4814 321.888 83.5869C321.806 83.6924 321.741 83.7451 321.694 83.7451C321.642 83.7451 321.536 83.7012 321.378 83.6133C321.114 83.4727 320.853 83.3613 320.596 83.2793C320.338 83.1914 320.024 83.1475 319.655 83.1475C319.052 83.1475 318.562 83.3027 318.187 83.6133C317.818 83.9238 317.634 84.3574 317.634 84.9141C317.634 85.248 317.716 85.5234 317.88 85.7402C318.044 85.957 318.252 86.1299 318.504 86.2588C318.756 86.3877 319.107 86.5371 319.559 86.707C319.588 86.7129 319.655 86.7363 319.761 86.7773C320.382 87.0176 320.889 87.252 321.281 87.4805C321.68 87.7031 322.017 88.0254 322.292 88.4473C322.573 88.8691 322.714 89.4082 322.714 90.0645C322.714 90.6797 322.57 91.2158 322.283 91.6729C322.002 92.1299 321.598 92.4814 321.07 92.7275C320.549 92.9678 319.939 93.0879 319.242 93.0879Z" fill="#808080"/>
<defs>
<linearGradient id="paint0_linear_482_1411" x1="50.9999" y1="65.4828" x2="140.474" y2="65.4828" gradientUnits="userSpaceOnUse">
<stop stop-color="#4F30B9"/>
<stop offset="0.5" stop-color="#335ACF"/>
<stop offset="1" stop-color="#1E7ADF"/>
</linearGradient>
</defs>
</svg>
