<svg width="1553" height="318" viewBox="0 0 1553 318" fill="none" xmlns="http://www.w3.org/2000/svg">
<path d="M614.841 228.794C619.411 228.794 623.94 229.688 628.428 231.487C632.912 233.278 636.321 235.571 638.659 238.361L632.72 245.96C630.449 243.562 627.647 241.657 624.314 240.266C620.976 238.867 617.567 238.165 614.083 238.165C610.218 238.165 607.057 239.052 604.587 240.828C602.117 242.604 600.877 244.889 600.877 247.68C600.877 249.494 601.333 251.081 602.249 252.443C603.162 253.804 604.395 254.924 605.93 255.799C607.472 256.67 609.237 257.439 611.213 258.114C613.197 258.793 615.293 259.43 617.511 260.041C619.736 260.652 621.942 261.297 624.14 261.991C626.339 262.677 628.432 263.533 630.415 264.548C632.391 265.57 634.149 266.758 635.691 268.13C637.233 269.492 638.463 271.238 639.379 273.357C640.292 275.48 640.752 277.901 640.752 280.631C640.752 283.422 640.148 286.084 638.946 288.622C637.746 291.156 636.064 293.377 633.919 295.278C631.765 297.19 629.084 298.702 625.871 299.815C622.651 300.935 619.148 301.493 615.361 301.493C610.01 301.493 604.844 300.456 599.87 298.385C594.888 296.315 590.759 293.615 587.478 290.3L593.829 283.049C600.458 289.097 607.638 292.122 615.361 292.122C619.792 292.122 623.416 291.062 626.23 288.946C629.035 286.823 630.442 284.086 630.442 280.733C630.442 278.987 629.993 277.46 629.096 276.144C628.198 274.828 626.98 273.768 625.438 272.961C623.895 272.158 622.138 271.434 620.154 270.793C618.178 270.151 616.097 269.544 613.909 268.964C611.726 268.39 609.543 267.768 607.355 267.089C605.172 266.418 603.087 265.57 601.111 264.548C599.127 263.533 597.37 262.349 595.827 260.995C594.285 259.649 593.063 257.903 592.169 255.746C591.272 253.593 590.823 251.134 590.823 248.374C590.823 242.755 593.093 238.082 597.63 234.368C602.159 230.65 607.898 228.794 614.841 228.794Z" fill="#808080"/>
<path d="M729.402 228.794C734.515 228.794 739.346 229.726 743.901 231.585C748.457 233.444 752.367 235.97 755.637 239.176C758.906 242.381 761.486 246.224 763.383 250.693C765.272 255.169 766.226 259.917 766.226 264.947C766.226 270.042 765.272 274.854 763.383 279.375C761.486 283.897 758.906 287.77 755.637 291.013C752.367 294.248 748.457 296.805 743.901 298.679C739.346 300.561 734.515 301.493 729.402 301.493C724.258 301.493 719.408 300.561 714.857 298.679C710.301 296.805 706.398 294.248 703.151 291.013C699.897 287.77 697.325 283.897 695.428 279.375C693.531 274.854 692.585 270.038 692.585 264.947C692.585 258.239 694.187 252.122 697.389 246.601C700.587 241.08 705.003 236.732 710.641 233.557C716.278 230.382 722.531 228.794 729.402 228.794ZM742.864 241.695C738.799 239.342 734.311 238.165 729.402 238.165C724.499 238.165 720.015 239.338 715.946 241.695C711.889 244.041 708.695 247.276 706.372 251.383C704.056 255.489 702.895 260.011 702.895 264.947C702.895 272.606 705.444 279.051 710.539 284.282C715.637 289.508 721.916 292.122 729.402 292.122C736.887 292.122 743.173 289.512 748.272 284.282C753.37 279.055 755.916 272.606 755.916 264.947C755.916 260.011 754.754 255.489 752.439 251.383C750.116 247.276 746.922 244.041 742.864 241.695Z" fill="#808080"/>
<path d="M821.423 229.778H831.522V291.231H867.332V300.508H821.423V229.778V229.778Z" fill="#808080"/>
<path d="M963.181 293.603C957.852 298.86 951.151 301.496 943.096 301.496C935.041 301.496 928.347 298.864 923.011 293.603C917.683 288.347 915.017 281.747 915.017 273.824V229.778H925.116V273.824C925.116 279.051 926.82 283.391 930.222 286.846C933.631 290.3 937.922 292.02 943.096 292.02C948.277 292.02 952.577 290.296 956.001 286.846C959.417 283.391 961.129 279.051 961.129 273.824V229.778H971.183V273.824C971.183 281.747 968.517 288.343 963.181 293.603Z" fill="#808080"/>
<path d="M1080.77 229.778V239.1H1057.71V300.508H1047.61V239.1H1024.51V229.778H1080.77V229.778Z" fill="#808080"/>
<path d="M1134.09 229.778H1144.18V300.508H1134.09V229.778Z" fill="#808080"/>
<path d="M1236.21 228.794C1241.32 228.794 1246.15 229.726 1250.71 231.585C1255.26 233.444 1259.17 235.97 1262.44 239.176C1265.71 242.381 1268.29 246.224 1270.19 250.693C1272.08 255.169 1273.03 259.917 1273.03 264.947C1273.03 270.042 1272.08 274.854 1270.19 279.375C1268.29 283.897 1265.71 287.77 1262.44 291.013C1259.17 294.248 1255.26 296.805 1250.71 298.679C1246.15 300.561 1241.32 301.493 1236.21 301.493C1231.07 301.493 1226.22 300.561 1221.66 298.679C1217.11 296.805 1213.21 294.248 1209.96 291.013C1206.7 287.77 1204.13 283.897 1202.24 279.375C1200.34 274.854 1199.39 270.038 1199.39 264.947C1199.39 258.239 1201 252.122 1204.2 246.601C1207.39 241.08 1211.81 236.732 1217.45 233.557C1223.09 230.382 1229.34 228.794 1236.21 228.794ZM1249.67 241.695C1245.61 239.342 1241.12 238.165 1236.21 238.165C1231.31 238.165 1226.82 239.338 1222.75 241.695C1218.7 244.041 1215.5 247.276 1213.18 251.383C1210.86 255.489 1209.7 260.011 1209.7 264.947C1209.7 272.606 1212.25 279.051 1217.35 284.282C1222.44 289.512 1228.72 292.122 1236.21 292.122C1243.69 292.122 1249.98 289.512 1255.08 284.282C1260.18 279.055 1262.72 272.606 1262.72 264.947C1262.72 260.011 1261.56 255.489 1259.25 251.383C1256.92 247.276 1253.73 244.041 1249.67 241.695Z" fill="#808080"/>
<path d="M1328.23 229.778H1337.31L1374.95 282.113V229.778H1384.95V300.508H1376.07L1338.33 248.279V300.508H1328.23V229.778H1328.23Z" fill="#808080"/>
<path d="M1465.44 228.794C1470.01 228.794 1474.54 229.688 1479.03 231.487C1483.51 233.278 1486.92 235.571 1489.26 238.361L1483.32 245.96C1481.05 243.562 1478.25 241.657 1474.91 240.266C1471.58 238.867 1468.17 238.165 1464.68 238.165C1460.82 238.165 1457.66 239.051 1455.19 240.828C1452.72 242.604 1451.48 244.889 1451.48 247.68C1451.48 249.494 1451.93 251.081 1452.85 252.442C1453.76 253.804 1455 254.924 1456.53 255.799C1458.07 256.67 1459.84 257.439 1461.81 258.114C1463.8 258.793 1465.89 259.43 1468.11 260.041C1470.34 260.652 1472.54 261.297 1474.74 261.991C1476.94 262.677 1479.03 263.533 1481.02 264.548C1482.99 265.57 1484.75 266.757 1486.29 268.13C1487.83 269.491 1489.06 271.237 1489.98 273.357C1490.89 275.48 1491.35 277.901 1491.35 280.631C1491.35 283.422 1490.75 286.084 1489.55 288.622C1488.35 291.156 1486.66 293.377 1484.52 295.278C1482.37 297.19 1479.68 298.702 1476.47 299.814C1473.25 300.935 1469.75 301.493 1465.96 301.493C1460.61 301.493 1455.44 300.456 1450.47 298.385C1445.49 296.315 1441.36 293.615 1438.08 290.3L1444.43 283.048C1451.06 289.097 1458.24 292.122 1465.96 292.122C1470.39 292.122 1474.02 291.062 1476.83 288.946C1479.64 286.823 1481.04 284.085 1481.04 280.733C1481.04 278.987 1480.59 277.46 1479.7 276.144C1478.8 274.827 1477.58 273.768 1476.04 272.961C1474.5 272.158 1472.74 271.434 1470.75 270.792C1468.78 270.151 1466.7 269.544 1464.51 268.963C1462.33 268.39 1460.14 267.768 1457.96 267.089C1455.77 266.418 1453.69 265.57 1451.71 264.548C1449.73 263.533 1447.97 262.349 1446.43 260.995C1444.88 259.649 1443.66 257.903 1442.77 255.746C1441.87 253.593 1441.42 251.134 1441.42 248.374C1441.42 242.755 1443.69 238.082 1448.23 234.368C1452.76 230.65 1458.5 228.794 1465.44 228.794Z" fill="#808080"/>
<path d="M601.043 145.281V33.107C601.043 27.2845 602.37 22.9101 605.021 19.9988C607.673 17.0875 611.1 15.6206 615.316 15.6206C619.649 15.6206 623.164 17.0649 625.849 19.9422C628.545 22.8309 629.88 27.2204 629.88 33.1032V145.277C629.88 151.164 628.545 155.572 625.849 158.483C623.164 161.395 619.649 162.85 615.316 162.85C611.165 162.85 607.759 161.383 605.067 158.431C602.378 155.489 601.043 151.103 601.043 145.281Z" fill="#1C1C23"/>
<path d="M701.293 32.9135L756.743 116.823V32.1366C756.743 26.6384 757.927 22.5091 760.287 19.7525C762.648 17.0034 765.838 15.6232 769.851 15.6232C774.003 15.6232 777.268 17.0034 779.659 19.7525C782.054 22.5129 783.261 26.6422 783.261 32.1366V144.107C783.261 156.612 778.075 162.853 767.716 162.853C765.129 162.853 762.803 162.487 760.732 161.744C758.651 161.001 756.712 159.813 754.902 158.199C753.092 156.582 751.41 154.685 749.845 152.52C748.292 150.352 746.742 148.134 745.188 145.868L691.096 62.9273V146.351C691.096 151.785 689.836 155.903 687.314 158.682C684.78 161.465 681.548 162.853 677.599 162.853C673.515 162.853 670.246 161.45 667.791 158.625C665.332 155.812 664.095 151.717 664.095 146.347V36.5035C664.095 31.8463 664.612 28.1921 665.656 25.5297C666.886 22.6185 668.922 20.2352 671.769 18.3949C674.617 16.5546 677.697 15.6232 680.997 15.6232C683.584 15.6232 685.805 16.0531 687.649 16.894C689.493 17.735 691.111 18.8663 692.51 20.288C693.902 21.7097 695.323 23.5537 696.779 25.8163C698.231 28.0941 699.739 30.4547 701.293 32.9135Z" fill="#1C1C23"/>
<path d="M901.483 40.2974H844.676V76.7107H892.173C896.57 76.7107 899.858 77.7025 902.026 79.6747C904.195 81.647 905.281 84.2867 905.281 87.5864C905.281 90.8974 904.18 93.5145 901.97 95.4566C899.771 97.3987 896.506 98.3679 892.173 98.3679H844.676V145.28C844.676 151.231 843.33 155.65 840.645 158.528C837.96 161.405 834.509 162.849 830.308 162.849C826.028 162.849 822.548 161.394 819.863 158.482C817.178 155.571 815.831 151.163 815.831 145.276V35.7268C815.831 31.5862 816.446 28.2036 817.687 25.5827C818.916 22.9618 820.835 21.0537 823.464 19.8469C826.085 18.6515 829.437 18.0557 833.51 18.0557H901.487C906.092 18.0557 909.508 19.0701 911.737 21.1064C913.969 23.1541 915.089 25.8165 915.089 29.1275C915.089 32.4913 913.969 35.1951 911.737 37.2353C909.504 39.2716 906.084 40.2974 901.483 40.2974Z" fill="#1C1C23"/>
<path d="M977.847 145.28V100.114L943.082 46.2142C940.043 41.3646 937.886 37.5785 936.626 34.852C935.366 32.1369 934.729 29.7762 934.729 27.77C934.729 24.459 936.011 21.6156 938.568 19.221C941.125 16.8264 944.281 15.6196 948.045 15.6196C951.989 15.6196 954.987 16.7396 957.024 18.9721C959.06 21.2159 962.122 25.6657 966.199 32.3292L992.815 75.5455L1019.71 32.3292C1021.33 29.6781 1022.7 27.4457 1023.79 25.6242C1024.9 23.8141 1026.1 22.1209 1027.44 20.5258C1028.76 18.9419 1030.23 17.7352 1031.85 16.8942C1033.47 16.0533 1035.45 15.6234 1037.77 15.6234C1041.39 15.6234 1044.43 16.8075 1046.85 19.1682C1049.29 21.5402 1050.49 24.2667 1050.49 27.3816C1050.49 29.9044 1049.88 32.4272 1048.65 34.9501C1047.42 37.4842 1045.32 40.9762 1042.33 45.4374L1006.7 100.11V145.276C1006.7 151.163 1005.34 155.571 1002.62 158.482C999.893 161.394 996.431 162.849 992.226 162.849C987.946 162.849 984.488 161.405 981.833 158.528C979.171 155.65 977.847 151.231 977.847 145.28Z" fill="#1C1C23"/>
<path d="M1109.57 32.9135L1165.02 116.823V32.1366C1165.02 26.6384 1166.21 22.5091 1168.57 19.7525C1170.93 17.0034 1174.12 15.6232 1178.13 15.6232C1182.28 15.6232 1185.55 17.0034 1187.94 19.7525C1190.34 22.5129 1191.54 26.6422 1191.54 32.1366V144.107C1191.54 156.612 1186.36 162.853 1176 162.853C1173.41 162.853 1171.08 162.487 1169.01 161.744C1166.93 161.001 1164.99 159.813 1163.18 158.199C1161.37 156.582 1159.69 154.685 1158.13 152.52C1156.57 150.352 1155.02 148.134 1153.47 145.868L1099.38 62.9235V146.347C1099.38 151.781 1098.12 155.899 1095.59 158.678C1093.06 161.461 1089.83 162.849 1085.88 162.849C1081.8 162.849 1078.53 161.446 1076.07 158.622C1073.61 155.808 1072.38 151.713 1072.38 146.343V36.5035C1072.38 31.8463 1072.89 28.1921 1073.94 25.5297C1075.17 22.6185 1077.21 20.2352 1080.05 18.3949C1082.9 16.5508 1085.98 15.6232 1089.28 15.6232C1091.87 15.6232 1094.09 16.0531 1095.93 16.894C1097.78 17.735 1099.4 18.8663 1100.8 20.288C1102.19 21.7097 1103.61 23.5537 1105.06 25.8163C1106.51 28.0941 1108.02 30.4547 1109.57 32.9135Z" fill="#1C1C23"/>
<path d="M1262.28 32.9135L1317.73 116.823V32.1366C1317.73 26.6384 1318.91 22.5091 1321.27 19.7525C1323.63 17.0034 1326.82 15.6232 1330.84 15.6232C1334.99 15.6232 1338.25 17.0034 1340.65 19.7525C1343.04 22.5129 1344.25 26.6422 1344.25 32.1366V144.107C1344.25 156.612 1339.06 162.853 1328.7 162.853C1326.12 162.853 1323.79 162.487 1321.72 161.744C1319.64 161.001 1317.7 159.813 1315.89 158.199C1314.08 156.582 1312.4 154.685 1310.83 152.52C1309.28 150.352 1307.73 148.134 1306.17 145.868L1252.08 62.9273V146.351C1252.08 151.785 1250.82 155.903 1248.3 158.682C1245.77 161.465 1242.53 162.853 1238.59 162.853C1234.5 162.853 1231.23 161.45 1228.78 158.625C1226.32 155.812 1225.08 151.717 1225.08 146.347V36.5035C1225.08 31.8463 1225.6 28.1921 1226.64 25.5297C1227.87 22.6185 1229.91 20.2352 1232.76 18.3949C1235.6 16.5508 1238.68 15.6232 1241.98 15.6232C1244.57 15.6232 1246.79 16.0531 1248.64 16.894C1250.48 17.735 1252.1 18.8663 1253.5 20.288C1254.89 21.7097 1256.31 23.5537 1257.77 25.8163C1259.22 28.0941 1260.73 30.4547 1262.28 32.9135Z" fill="#1C1C23"/>
<path d="M1440.04 15.6232C1454.8 15.6232 1467.47 18.6212 1478.06 24.6134C1488.64 30.5943 1496.66 39.1131 1502.1 50.151C1507.54 61.1889 1510.26 74.1575 1510.26 89.0457C1510.26 100.053 1508.77 110.054 1505.78 119.056C1502.81 128.057 1498.35 135.86 1492.39 142.459C1486.43 149.066 1479.11 154.111 1470.44 157.615C1461.76 161.107 1451.82 162.853 1440.62 162.853C1429.48 162.853 1419.51 161.062 1410.72 157.464C1401.91 153.874 1394.56 148.809 1388.67 142.263C1382.77 135.731 1378.32 127.861 1375.31 118.667C1372.3 109.473 1370.8 99.533 1370.8 88.8496C1370.8 77.9097 1372.36 67.8712 1375.51 58.7528C1378.64 49.623 1383.19 41.8509 1389.15 35.4363C1395.1 29.033 1402.36 24.1269 1410.91 20.7216C1419.45 17.3239 1429.16 15.6232 1440.04 15.6232ZM1481.02 88.8496C1481.02 78.4264 1479.34 69.4022 1475.97 61.7621C1472.6 54.1181 1467.79 48.3409 1461.55 44.4265C1455.3 40.5008 1448.13 38.5512 1440.03 38.5512C1434.28 38.5512 1428.95 39.6297 1424.06 41.7943C1419.17 43.9702 1414.96 47.1304 1411.44 51.271C1407.91 55.4116 1405.13 60.7024 1403.08 67.1509C1401.05 73.5881 1400.03 80.8285 1400.03 88.8496C1400.03 96.946 1401.05 104.266 1403.08 110.797C1405.13 117.34 1408.01 122.763 1411.73 127.065C1415.45 131.376 1419.73 134.6 1424.55 136.734C1429.38 138.869 1434.67 139.936 1440.43 139.936C1447.81 139.936 1454.59 138.092 1460.78 134.408C1466.96 130.712 1471.88 125.018 1475.54 117.31C1479.19 109.598 1481.02 100.114 1481.02 88.8496Z" fill="#1C1C23"/>
<path d="M504.869 90.201C495.8 90.201 488.465 97.5357 488.465 106.605V236.62C488.465 249.162 481.711 259.876 470.421 265.28C459.13 270.684 446.49 269.334 436.745 261.418L308.02 158.461L431.149 55.7864C435.493 52.7959 438.386 47.8747 438.386 42.1804C438.386 33.111 431.051 25.7763 421.981 25.7763C418.603 25.7763 415.42 26.8359 412.814 28.5744C412.429 28.7667 412.139 29.0571 411.751 29.3475L281.774 137.422L147.26 29.9282C127.673 14.1991 101.521 11.2087 78.9434 22.1108C56.268 32.9187 42.2737 55.3037 42.2737 80.3925V236.616C42.2737 261.705 56.2643 283.996 78.9434 294.898C101.525 305.706 127.767 302.715 147.26 287.08L281.774 179.488L416.189 287.08C427.962 296.538 442.145 301.361 456.524 301.361C465.982 301.361 475.628 299.238 484.607 294.898C507.283 283.996 521.273 261.705 521.273 236.616V106.605C521.273 97.5357 513.939 90.201 504.869 90.201ZM126.802 261.418C116.959 269.33 104.413 270.684 93.1264 265.28C81.8358 259.876 75.0819 249.166 75.0819 236.62V80.3963C75.0819 67.8537 81.8358 57.0459 93.1264 51.642C97.6629 49.5189 102.388 48.4592 107.023 48.4592C114.067 48.4592 120.919 50.7746 126.806 55.5035L255.527 158.461L126.802 261.418ZM521.277 32.0287C521.277 41.0868 513.931 48.4328 504.873 48.4328C495.815 48.4328 488.469 41.0868 488.469 32.0287C488.469 22.9706 495.815 15.6246 504.873 15.6246C513.935 15.6246 521.277 22.9668 521.277 32.0287Z" fill="url(#paint0_linear_40_2375)"/>
<defs>
<linearGradient id="paint0_linear_40_2375" x1="42.2733" y1="158.496" x2="521.279" y2="158.496" gradientUnits="userSpaceOnUse">
<stop stop-color="#4F30B9"/>
<stop offset="0.5" stop-color="#335ACF"/>
<stop offset="1" stop-color="#1E7ADF"/>
</linearGradient>
</defs>
</svg>
