<svg width="49" height="35" viewBox="0 0 49 35" fill="none" xmlns="http://www.w3.org/2000/svg">
<path d="M2.04175 4.08337H12.6176C14.1284 4.08337 15.5133 4.39813 16.7724 5.02764C18.0566 5.65716 19.0638 6.5133 19.794 7.59606C20.5243 8.67882 20.8894 9.86231 20.8894 11.1465C20.8894 12.5063 20.5495 13.6898 19.8696 14.697C19.2149 15.679 18.3462 16.4344 17.2634 16.9632V17.2654C18.6735 17.769 19.794 18.5748 20.625 19.6827C21.456 20.7655 21.8714 22.0749 21.8714 23.6109C21.8714 25.0965 21.4685 26.4185 20.6628 27.5768C19.8822 28.71 18.812 29.5913 17.4522 30.2208C16.1177 30.8251 14.632 31.1273 12.9953 31.1273H2.04175V4.08337ZM12.2399 15.1125C13.3478 15.1125 14.2291 14.8103 14.8838 14.206C15.5637 13.5764 15.9036 12.7958 15.9036 11.8642C15.9036 10.9577 15.5763 10.2022 14.9216 9.59791C14.2921 8.9684 13.4485 8.65364 12.391 8.65364H7.14081V15.1125H12.2399ZM12.8064 26.4815C14.0403 26.4815 14.9971 26.1667 15.677 25.5372C16.3821 24.8825 16.7346 24.039 16.7346 23.0066C16.7346 21.9742 16.3821 21.1306 15.677 20.4759C14.972 19.8212 13.9647 19.4939 12.6554 19.4939H7.14081V26.4815H12.8064Z" fill="#FFFCFC"/>
<path d="M25.5209 25.5208C23.9924 25.5208 22.6022 25.1642 21.3502 24.4509C20.1129 23.723 19.1375 22.7331 18.4242 21.4812C17.7109 20.2292 17.3542 18.8536 17.3542 17.3542C17.3542 15.8548 17.7109 14.4791 18.4242 13.2272C19.1375 11.9752 20.1129 10.9926 21.3502 10.2793C22.6022 9.55143 23.9924 9.1875 25.5209 9.1875C27.0494 9.1875 28.4324 9.55143 29.6698 10.2793C30.9217 10.9926 31.9043 11.9752 32.6176 13.2272C33.3309 14.4791 33.6876 15.8548 33.6876 17.3542C33.6876 18.8536 33.3309 20.2292 32.6176 21.4812C31.9043 22.7331 30.9217 23.723 29.6698 24.4509C28.4324 25.1642 27.0494 25.5208 25.5209 25.5208ZM25.5209 22.7258C26.4817 22.7258 27.3624 22.5002 28.1631 22.0489C28.9637 21.5976 29.5897 20.9644 30.041 20.1492C30.5068 19.334 30.7397 18.4023 30.7397 17.3542C30.7397 16.306 30.5068 15.3744 30.041 14.5592C29.5897 13.7439 28.9637 13.1107 28.1631 12.6594C27.3624 12.2081 26.4817 11.9825 25.5209 11.9825C24.5601 11.9825 23.6794 12.2081 22.8788 12.6594C22.0927 13.1107 21.4667 13.7439 21.0009 14.5592C20.5496 15.3744 20.3239 16.306 20.3239 17.3542C20.3239 18.4023 20.5496 19.334 21.0009 20.1492C21.4667 20.9644 22.0927 21.5976 22.8788 22.0489C23.6794 22.5002 24.5601 22.7258 25.5209 22.7258Z" fill="#C82E2E"/>
<path d="M45.9375 4.08337H36.0328C34.2618 4.08337 32.6932 4.45549 31.3271 5.19973C29.9356 5.94397 28.8604 6.98334 28.1014 8.31784C27.3424 9.62667 26.9629 11.1151 26.9629 12.7833C26.9629 14.554 27.5195 16.1323 28.6327 17.5182C29.7205 18.8783 31.0994 19.8664 32.7691 20.4823L32.8071 20.7518L25.5208 31.3379V31.6459H31.403L38.4236 21.2907H40.8144V31.6459H45.9375V4.08337ZM36.0707 16.5173C34.9069 16.5173 33.9582 16.158 33.2245 15.4394C32.4908 14.7209 32.124 13.8098 32.124 12.7063C32.124 11.6541 32.4782 10.7559 33.1866 10.0116C33.8697 9.26738 34.8057 8.89526 35.9948 8.89526H40.8144V16.5173H36.0707Z" fill="#FFFCFC"/>
<rect x="0.15" y="0.15" width="48.7" height="34.4083" rx="4.85" stroke="#FFFEFE" stroke-width="0.3"/>
</svg>
