<svg width="32" height="32" viewBox="0 0 32 32" fill="none" xmlns="http://www.w3.org/2000/svg">
<rect width="32" height="32" rx="16" fill="#F7F8F9"/>
<path d="M20.2421 20.2426C20.5025 19.9822 20.5025 19.5601 20.2421 19.2997L16.9428 16.0004L20.243 12.7001C20.5034 12.4397 20.5034 12.0176 20.243 11.7573C19.9827 11.4969 19.5606 11.4969 19.3002 11.7573L15.9999 15.0576L12.6997 11.7573C12.4393 11.4969 12.0172 11.4969 11.7568 11.7573C11.4965 12.0176 11.4965 12.4397 11.7568 12.7001L15.0571 16.0004L11.7578 19.2997C11.4974 19.5601 11.4974 19.9822 11.7578 20.2426C12.0181 20.5029 12.4402 20.5029 12.7006 20.2426L15.9999 16.9432L19.2993 20.2426C19.5597 20.5029 19.9818 20.5029 20.2421 20.2426Z" fill="#191D23"/>
</svg>
